<?xml version="1.0" standalone="no"?>
<!DOCTYPE svg PUBLIC "-//W3C//DTD SVG 20010904//EN"
 "http://www.w3.org/TR/2001/REC-SVG-20010904/DTD/svg10.dtd">
<svg version="1.0" xmlns="http://www.w3.org/2000/svg"
 width="180.000000pt" height="180.000000pt" viewBox="0 0 180.000000 180.000000"
 preserveAspectRatio="xMidYMid meet">
<metadata>
Created by potrace 1.14, written by Peter Selinger 2001-2017
</metadata>
<g transform="translate(0.000000,180.000000) scale(0.100000,-0.100000)"
fill="#000000" stroke="none">
<path d="M461 1555 c-29 -37 -57 -80 -63 -95 -8 -25 -13 -28 -39 -23 -21 4
-30 1 -35 -10 -3 -9 -20 -19 -36 -23 -40 -8 -120 -51 -130 -68 -12 -21 27
-126 56 -152 25 -24 25 -24 9 -68 -15 -40 -22 -47 -65 -61 -39 -13 -120 -58
-151 -85 -5 -4 0 -10 10 -14 9 -4 14 -4 10 0 -9 9 77 67 125 84 46 17 52 12
35 -28 -13 -31 -13 -31 -38 -15 -23 16 -23 16 -9 -2 14 -17 13 -18 -8 -13 -12
4 -20 2 -17 -3 3 -4 -7 -11 -22 -14 -15 -4 -36 -10 -45 -16 -10 -5 -25 -9 -33
-9 -9 0 -14 -4 -10 -10 4 -6 15 -6 32 1 23 8 24 8 13 -6 -19 -23 -7 -18 26 10
34 29 55 34 31 7 -31 -34 -18 -36 16 -4 36 35 56 32 32 -5 -9 -13 -11 -23 -6
-23 6 0 16 12 23 27 18 37 39 36 82 -3 46 -42 78 -51 125 -34 59 21 68 22 26
1 -22 -11 -58 -20 -79 -20 -33 -1 -45 5 -78 39 -40 43 -52 41 -18 -3 11 -14
20 -27 20 -30 0 -11 -50 -13 -60 -3 -8 8 -13 7 -20 -4 -9 -13 -10 -13 -10 0 0
11 -2 12 -8 2 -7 -9 -23 -8 -80 6 -40 10 -72 15 -72 11 0 -11 125 -39 174 -39
25 0 56 4 69 9 13 5 40 6 58 2 19 -4 46 -4 60 0 25 6 25 5 -10 -30 -34 -34
-61 -94 -61 -138 0 -20 50 -106 69 -118 7 -4 32 13 59 39 51 50 45 49 198 27
28 -4 60 -4 72 0 16 6 21 3 26 -14 11 -43 6 -108 -16 -169 -28 -84 -27 -139 6
-189 24 -35 98 -99 116 -99 6 0 39 75 58 135 5 17 8 61 6 98 -3 76 -38 149
-106 223 l-38 41 29 37 c16 21 31 42 33 48 6 18 29 -1 43 -36 8 -18 16 -59 20
-91 14 -140 26 -172 79 -204 39 -24 64 -19 72 14 13 54 62 69 127 41 20 -9 63
-19 95 -23 49 -5 62 -11 93 -43 47 -49 90 -57 158 -31 50 19 52 19 90 0 22
-10 58 -21 82 -24 24 -3 58 -14 77 -26 19 -11 37 -17 40 -14 9 8 3 84 -10 125
-5 19 -23 52 -39 72 -16 20 -29 39 -29 42 0 2 23 21 50 41 29 21 50 45 50 55
0 19 -57 70 -78 70 -7 0 -4 16 8 43 10 23 20 58 23 77 3 19 12 54 20 76 13 35
13 46 2 67 -7 14 -11 47 -10 75 5 74 -10 94 -79 112 -54 14 -61 19 -78 55 -11
22 -25 51 -31 64 -24 48 -62 66 -140 66 -40 0 -83 -3 -97 -6 -14 -3 -19 -4
-12 -2 7 3 10 8 7 13 -3 4 4 6 15 3 16 -4 19 -2 14 12 -5 13 -9 14 -15 3 -5
-7 -9 -9 -9 -4 0 4 -11 1 -24 -7 -21 -14 -26 -14 -52 -1 -16 9 -39 13 -52 11
-19 -4 -20 -2 -10 11 21 24 79 45 130 45 26 0 45 4 42 9 -3 5 -22 6 -42 3 -35
-6 -36 -5 -18 9 19 15 44 21 76 16 8 -1 12 2 7 6 -4 4 5 13 20 20 42 18 1 17
-44 -1 -43 -18 -46 -18 -36 -3 4 7 -10 -2 -32 -20 -39 -31 -62 -42 -50 -22 3
6 1 10 -6 10 -26 0 14 30 67 50 55 20 114 24 169 10 25 -6 26 -8 7 -9 -13 0
-20 -5 -17 -11 3 -5 2 -10 -4 -10 -5 0 -12 -9 -16 -19 -3 -11 -24 -38 -45 -60
-22 -23 -35 -41 -30 -41 14 0 42 29 79 83 18 26 38 47 45 47 8 0 19 6 25 14
10 12 3 15 -41 22 -76 11 -97 11 -148 -4 -88 -25 -191 -115 -212 -184 -12 -42
-23 -48 -33 -18 -3 11 -14 21 -23 22 -31 2 -67 -3 -76 -13 -17 -16 -32 -10
-34 16 -3 43 -29 88 -84 147 l-53 56 -45 -8 c-25 -5 -47 -5 -50 -1 -11 17 -51
31 -112 40 -35 6 -72 13 -84 16 -17 5 -31 -6 -73 -60z m145 34 c105 -15 134
-31 108 -60 -13 -14 -21 -16 -36 -8 -10 5 -15 15 -12 21 4 6 3 8 -3 5 -6 -4
-33 -3 -59 3 -48 9 -49 8 -89 -31 -31 -30 -37 -42 -26 -48 9 -6 10 -11 2 -15
-6 -4 -11 -2 -11 3 0 20 -17 11 -28 -14 -15 -32 -44 -34 -40 -2 2 12 10 28 18
35 13 12 13 13 0 6 -8 -5 3 14 26 41 22 28 44 58 47 69 5 12 13 16 25 11 9 -4
44 -11 78 -16z m224 -68 c0 -17 5 -33 10 -36 6 -3 10 -11 10 -17 0 -6 -7 -5
-17 3 -16 13 -17 12 -4 -3 7 -10 17 -15 22 -13 4 3 22 -13 39 -36 46 -64 40
-144 -16 -218 -2 -2 -19 10 -39 28 -20 17 -33 31 -29 31 3 0 -1 11 -10 25 -9
14 -15 29 -12 33 3 4 1 14 -5 22 -7 13 -9 13 -9 0 0 -13 -1 -13 -10 0 -13 20
-13 53 0 45 6 -3 10 1 10 10 0 9 -9 19 -19 22 -17 4 -28 25 -38 76 -4 22 51
57 90 57 23 0 27 -4 27 -29z m-205 8 c52 -13 74 -35 85 -83 l8 -36 -31 30
c-40 39 -69 46 -99 26 -12 -9 -30 -16 -40 -16 -9 0 -29 -10 -44 -23 -23 -20
-25 -26 -15 -45 16 -30 -9 -111 -27 -89 -19 22 -22 88 -7 124 8 19 19 32 24
29 11 -7 33 18 24 28 -9 8 47 66 64 66 8 0 34 -5 58 -11z m294 -86 c24 -34 42
-143 23 -143 -6 0 -10 12 -10 28 1 52 -2 60 -47 120 -25 33 -45 63 -45 67 0
12 57 -39 79 -72z m321 22 c0 -3 -15 -22 -32 -42 -18 -19 -31 -41 -30 -47 2
-6 0 -8 -4 -4 -4 4 -14 2 -23 -5 -12 -9 -11 -4 3 18 34 53 86 102 86 80z
m-606 -21 c3 -9 6 -22 6 -31 0 -12 -2 -12 -16 1 -18 18 -30 20 -39 6 -3 -5
-11 -10 -18 -10 -15 0 34 49 49 49 7 1 15 -6 18 -15z m56 -30 c12 -21 11 -26
-6 -39 -25 -19 -30 -19 -30 4 0 11 5 17 11 13 6 -3 5 0 -1 9 -15 19 -14 48 1
43 7 -3 18 -16 25 -30z m-285 0 c19 -5 23 -14 28 -62 5 -48 3 -58 -14 -69 -24
-18 -24 -45 1 -68 11 -10 18 -20 16 -24 -2 -3 2 -15 10 -26 8 -10 14 -14 14
-9 0 6 -5 15 -12 22 -8 8 -8 12 -1 12 15 0 36 -27 29 -38 -3 -6 1 -32 9 -58 8
-27 15 -50 15 -51 0 -5 -49 6 -67 15 -37 20 -102 103 -109 138 -8 41 3 107 17
99 5 -4 9 -1 9 4 0 6 -5 11 -11 11 -10 0 -7 39 10 119 1 2 8 0 17 -3 9 -3 26
-9 39 -12z m115 -5 c-7 -13 -8 -25 -2 -32 5 -7 12 -25 16 -41 4 -17 15 -36 24
-43 15 -12 14 -13 -6 -3 -13 6 -24 17 -26 23 -2 7 -9 29 -15 50 -10 30 -10 41
-1 52 18 21 22 18 10 -6z m20 -15 c0 -8 -5 -12 -10 -9 -6 4 -8 11 -5 16 9 14
15 11 15 -7z m-237 -16 c-4 -7 -8 -20 -8 -28 -2 -51 -20 -109 -41 -135 -24
-30 -25 -30 -40 -10 -23 29 -44 81 -44 107 0 18 12 30 53 51 56 29 94 36 80
15z m18 -11 c-10 -9 -11 -8 -5 6 3 10 9 15 12 12 3 -3 0 -11 -7 -18z m284 -11
c20 -15 20 -15 -2 -16 -12 0 -25 5 -28 10 -4 6 -10 8 -14 6 -4 -3 -8 4 -8 15
-2 20 11 17 52 -15z m149 -47 c-2 -4 1 -11 7 -15 8 -5 10 -2 5 7 -4 8 0 5 8
-5 22 -27 20 -32 -11 -34 -16 0 -41 -3 -58 -5 -19 -3 -37 1 -50 11 -19 16 -19
16 -6 -1 8 -9 11 -20 8 -23 -8 -8 -78 46 -72 56 2 4 23 10 47 14 29 5 51 17
72 40 l31 32 12 -35 c6 -19 10 -38 7 -42z m509 51 c15 -7 27 -16 27 -20 0 -4
-30 -22 -66 -40 -36 -19 -74 -44 -84 -57 l-18 -23 -6 23 c-9 33 -7 67 3 67 5
0 27 15 50 34 43 36 50 37 94 16z m-553 5 c0 -7 -78 -45 -92 -44 -7 0 7 11 32
24 47 24 60 28 60 20z m820 -33 c25 -19 51 -64 64 -112 l7 -25 -20 25 c-11 14
-19 30 -17 36 2 6 0 17 -6 25 -8 11 -9 10 -4 -3 7 -22 7 -21 -35 -4 -35 14
-79 12 -110 -5 -13 -6 -28 -3 -53 12 -19 11 -40 18 -45 15 -5 -3 -19 -2 -32 2
-19 8 -16 11 32 30 30 11 65 23 79 26 44 8 114 -3 140 -22z m-1215 -34 c-4
-29 -9 -60 -10 -68 -9 -47 52 -138 120 -181 30 -19 30 -19 5 -19 -35 0 -87 34
-109 72 -28 45 -34 98 -21 178 14 81 25 95 15 18z m755 42 c12 -7 21 -26 26
-58 3 -26 10 -55 15 -64 7 -13 2 -19 -26 -28 -23 -8 -41 -23 -52 -43 -8 -18
-33 -48 -53 -67 -31 -29 -39 -44 -45 -87 -4 -29 -8 -53 -10 -53 -34 0 -70 63
-74 128 -3 54 13 103 44 132 13 13 22 26 20 31 -3 4 0 11 6 15 8 5 9 3 4 -7
-4 -8 7 0 26 18 19 17 52 43 73 57 21 14 33 26 25 26 -8 0 -26 -10 -41 -23
-14 -12 -36 -30 -48 -40 -38 -32 -31 -12 11 31 40 42 65 50 99 32z m-511 -69
c51 -28 49 -36 -7 -17 -22 8 -43 12 -46 9 -11 -11 -18 27 -11 55 l8 27 6 -25
c4 -15 23 -34 50 -49z m6 59 c3 -5 1 -10 -4 -10 -6 0 -11 5 -11 10 0 6 2 10 4
10 3 0 8 -4 11 -10z m-96 -64 c9 -7 47 -20 84 -28 58 -13 78 -13 131 -2 65 13
75 13 116 -1 l25 -9 -30 -7 c-138 -35 -180 -40 -215 -29 -19 6 -51 10 -70 7
-58 -7 -115 37 -89 69 14 18 28 18 48 0z m886 -6 c30 -15 42 -17 52 -8 22 18
93 21 121 6 16 -8 39 -43 65 -98 57 -124 59 -134 37 -191 -11 -27 -20 -58 -20
-68 0 -34 -33 -52 -91 -49 l-54 3 42 22 c45 24 48 31 58 108 5 43 3 55 -16 78
-21 27 -21 29 -3 42 18 13 18 14 -3 8 -22 -5 -24 -1 -23 32 1 10 -53 55 -66
55 -7 0 -20 10 -28 22 -9 12 -19 18 -23 14 -5 -4 1 -15 13 -24 11 -10 34 -28
51 -42 17 -14 34 -35 38 -47 6 -20 3 -20 -24 7 -16 17 -37 30 -45 31 -48 3
-65 1 -100 -15 -27 -11 -43 -13 -50 -6 -5 5 -15 10 -20 10 -6 0 -5 -5 2 -12
16 -16 15 -28 -3 -28 -7 0 -18 -7 -23 -16 -8 -15 -10 -15 -15 0 -7 19 1 46 14
46 5 0 9 5 9 10 0 19 -40 -14 -48 -40 -6 -18 -3 -38 10 -68 10 -24 18 -51 18
-60 1 -35 30 -68 86 -98 66 -36 76 -49 38 -52 -21 -2 -25 2 -20 16 6 16 5 16
-8 0 -15 -21 -62 -25 -50 -5 6 9 4 9 -8 -1 -15 -12 -56 -11 -78 3 -8 5 -7 12
2 23 12 15 11 16 -4 3 -10 -7 -16 -16 -14 -20 3 -4 -11 -5 -29 -3 -19 2 -36
11 -39 19 -8 19 27 79 43 76 6 -2 10 3 8 10 -1 6 3 11 10 10 7 -2 10 3 7 11
-3 8 5 21 17 30 13 8 20 18 17 21 -3 3 -19 -10 -36 -30 -33 -37 -48 -45 -38
-20 3 8 0 15 -5 15 -6 0 -9 -9 -6 -19 3 -11 -2 -29 -10 -41 -22 -32 -33 -79
-23 -98 5 -10 14 -36 20 -59 7 -29 21 -50 43 -67 53 -40 152 -86 199 -92 23
-3 48 -13 53 -21 6 -9 23 -31 39 -50 16 -18 27 -35 25 -37 -35 -30 -161 -42
-259 -24 -65 11 -120 43 -120 67 0 25 -29 47 -71 55 -21 4 -42 12 -48 20 -6 7
-20 60 -32 117 -18 87 -19 111 -10 154 6 27 13 61 16 75 13 68 19 80 56 113
21 20 39 42 39 51 0 17 37 46 58 46 8 0 -3 -20 -26 -47 -65 -80 -73 -107 -51
-185 10 -37 58 -104 59 -82 0 6 -7 17 -15 24 -21 17 -44 101 -38 136 3 16 24
54 48 84 23 30 52 74 64 97 11 23 33 49 49 57 39 22 120 20 167 -4z m-1051
-158 c31 -60 110 -99 175 -86 19 4 42 2 57 -6 22 -12 23 -15 9 -30 -29 -32
-193 -83 -227 -71 -8 3 -35 22 -58 41 -23 19 -47 38 -53 42 -7 4 -3 28 12 70
12 34 23 75 25 89 2 14 9 36 17 50 13 23 13 23 20 -22 4 -25 14 -60 23 -77z
m531 92 c11 -12 14 -25 9 -43 -3 -14 -7 -35 -8 -46 -1 -11 -6 -26 -10 -34 -7
-10 -5 -12 5 -6 8 5 5 -1 -5 -13 -13 -15 -26 -20 -40 -16 -17 4 -18 3 -6 -5
12 -9 10 -11 -12 -11 -38 0 -76 -19 -83 -42 -8 -24 -60 -25 -69 -1 -5 13 15
37 76 94 46 43 95 83 111 90 15 6 27 15 27 20 0 15 -74 -27 -107 -61 -29 -30
-32 -30 -42 -13 -6 10 -11 13 -11 6 0 -6 5 -15 11 -19 7 -4 1 -15 -17 -31 -45
-38 -66 -43 -94 -25 l-25 15 19 -22 c11 -12 26 -19 33 -16 8 2 11 0 8 -5 -11
-17 -34 -11 -66 18 -23 21 -34 42 -44 90 -7 34 -10 62 -6 63 42 6 61 4 91 -6
22 -7 48 -9 70 -4 19 5 52 10 72 13 21 3 46 9 55 15 25 15 39 13 58 -5z m893
-45 c19 -7 22 -16 22 -61 -1 -52 -1 -52 -18 -32 -9 12 -23 31 -31 42 -8 11
-31 30 -52 42 -58 32 -52 51 9 33 26 -8 57 -19 70 -24z m-232 -52 c42 -42 52
-59 49 -78 -2 -13 -6 -40 -8 -59 -6 -47 -16 -70 -32 -70 -8 0 -27 -12 -44 -26
-17 -14 -31 -22 -31 -17 0 17 43 79 73 104 26 22 29 29 23 61 -8 42 -19 53
-65 63 -18 4 -49 17 -67 30 -29 19 -40 22 -67 14 -57 -16 -50 -5 10 16 74 27
101 20 159 -38z m162 17 c31 -18 112 -125 112 -147 0 -8 -6 -30 -14 -48 -8
-19 -17 -54 -20 -78 -3 -24 -15 -60 -26 -79 -12 -19 -25 -55 -31 -81 -12 -59
-42 -109 -72 -120 -16 -6 -36 -2 -75 19 -30 16 -65 27 -79 25 -14 -1 -37 3
-51 11 -14 7 -30 11 -36 8 -6 -3 -2 1 9 8 10 7 45 40 76 72 l56 60 69 -11 c54
-8 72 -8 83 2 11 11 8 18 -19 44 -18 17 -39 31 -46 31 -19 0 -17 9 6 28 11 10
21 29 24 43 2 14 12 49 22 77 18 50 18 52 -3 102 -12 27 -19 50 -16 50 3 0 17
-7 31 -16z m-293 -12 c-7 -7 43 -31 78 -38 40 -7 43 -9 62 -46 15 -30 14 -33
-6 -52 -12 -12 -18 -15 -14 -7 6 10 4 12 -5 6 -7 -4 -21 -27 -32 -51 -20 -47
-32 -58 -23 -21 3 12 7 38 8 57 2 20 10 46 20 60 19 27 14 40 -13 40 -13 0
-17 -5 -14 -15 6 -15 -5 -20 -35 -16 -11 2 -11 0 0 -12 8 -8 17 -13 21 -11 10
6 3 -89 -9 -109 -8 -16 -12 -15 -34 17 -13 20 -32 39 -41 42 -10 3 -18 10 -18
15 0 6 -4 8 -10 4 -5 -3 -17 9 -26 27 -14 27 -14 31 -2 20 9 -7 22 -11 29 -9
8 2 11 2 6 0 -4 -3 -5 -9 -1 -14 6 -11 84 -12 84 -1 -1 12 -27 43 -36 41 -5
-1 -20 -1 -34 0 l-25 2 23 12 c18 8 29 8 44 -2 24 -15 31 -10 22 13 -4 10 -13
15 -21 12 -8 -3 -11 -1 -8 4 3 6 -1 10 -9 10 -8 0 -18 -4 -21 -10 -3 -5 -15
-10 -25 -10 -28 0 -14 27 18 38 29 9 55 12 47 4z m-104 -39 c-10 -17 -10 -16
-11 3 0 23 13 41 18 25 2 -6 -1 -18 -7 -28z m-11 -54 c0 -19 30 -51 85 -93 46
-36 32 -45 -24 -17 -47 25 -51 30 -72 101 -9 30 -19 64 -23 75 -4 11 2 4 13
-15 11 -19 20 -42 21 -51z m-410 11 c0 -5 -2 -10 -4 -10 -3 0 -8 5 -11 10 -3
6 -1 10 4 10 6 0 11 -4 11 -10z m14 -35 c6 -11 23 -30 37 -43 22 -20 25 -29
20 -60 -7 -37 18 -192 39 -246 8 -21 7 -32 -2 -45 -11 -14 -11 -14 3 -4 10 8
25 10 45 4 16 -4 34 -6 41 -4 6 2 18 -6 27 -19 17 -24 22 -63 7 -54 -14 9 -58
-31 -65 -59 -8 -32 -35 -32 -70 0 -34 32 -43 57 -51 146 -11 130 -25 153 -153
256 -45 37 -58 76 -36 111 20 30 48 40 103 38 32 -2 48 -8 55 -21z m511 7 c-3
-3 -11 0 -18 7 -9 10 -8 11 6 5 10 -3 15 -9 12 -12z m-753 -31 c10 -9 23 -17
28 -17 6 -1 15 -2 20 -3 6 0 10 -8 10 -17 0 -29 31 -70 76 -100 50 -33 53 -45
22 -91 -25 -36 -45 -45 -28 -12 7 11 9 23 6 27 -3 3 -6 0 -6 -6 0 -7 -10 -22
-22 -34 -16 -16 -17 -20 -5 -15 31 12 18 -10 -13 -23 -20 -8 -47 -10 -78 -5
-26 3 -69 8 -96 10 -39 3 -56 10 -82 36 -19 18 -37 29 -41 25 -4 -4 6 -18 22
-31 l30 -24 -43 -42 c-48 -47 -58 -45 -91 24 -19 40 -19 87 -1 87 5 0 6 8 4
18 -3 9 6 30 18 45 l23 28 2 -38 c4 -70 3 -98 -3 -125 -3 -17 -1 -28 5 -28 6
0 11 12 11 26 0 14 3 23 8 21 12 -8 7 56 -7 81 -11 21 -9 28 13 62 23 36 103
100 124 100 4 0 19 11 32 25 23 25 29 24 62 -4z m683 -144 c50 0 108 5 130 11
65 18 165 0 208 -36 28 -24 20 -35 -20 -28 -117 19 -127 18 -208 -9 -123 -41
-146 -39 -219 21 -31 25 -56 49 -56 54 0 4 17 4 38 -2 20 -6 78 -11 127 -11z
m-126 -46 c25 -21 56 -43 68 -50 35 -18 89 -13 153 14 33 14 67 25 75 25 15 0
15 -1 1 -16 -9 -9 -28 -31 -42 -49 -14 -18 -43 -40 -65 -49 -38 -16 -42 -15
-93 9 -85 40 -130 78 -143 119 -6 20 -9 36 -6 36 3 0 26 -17 52 -39z m579 -76
c36 -30 33 -59 -8 -80 -36 -19 -80 -71 -80 -96 0 -36 -52 -77 -133 -103 -42
-15 -88 -26 -102 -26 -35 0 -72 19 -90 47 -15 23 -15 23 25 23 44 0 110 23
122 43 4 7 -6 25 -25 45 -25 25 -29 35 -18 41 7 5 23 6 35 3 24 -6 62 -30 59
-37 -2 -3 6 -20 17 -37 11 -18 20 -28 20 -22 0 6 -9 23 -21 38 -23 30 -23 30
20 15 25 -9 36 -8 56 5 36 24 66 88 74 159 2 13 19 7 49 -18z m-956 -90 c9
-11 31 -48 49 -82 25 -50 31 -73 31 -125 0 -58 -30 -167 -53 -192 -8 -9 -81
48 -105 83 -21 30 -27 90 -14 138 7 23 15 43 19 43 8 0 15 53 14 115 l0 50 15
-35 c9 -22 12 -52 9 -80 l-6 -45 15 33 c15 35 23 38 44 20 8 -7 1 3 -17 22
-17 19 -35 47 -38 63 -4 15 -11 27 -16 27 -5 0 -9 5 -9 12 0 12 31 -12 62 -47z
m948 -117 c11 -20 23 -62 26 -93 l5 -55 -33 14 c-44 19 -133 46 -152 46 -9 0
-16 5 -16 10 0 6 8 10 18 10 10 0 29 11 42 25 22 23 24 23 37 7 8 -9 12 -11 8
-4 -3 6 -2 12 3 12 10 0 22 -22 28 -48 4 -19 14 -28 14 -12 0 10 3 10 15 0 8
-7 15 -9 15 -4 -1 14 -53 70 -71 77 -14 5 -15 11 -6 40 9 29 14 33 28 24 10
-6 27 -28 39 -49z"/>
<path d="M891 1294 c0 -11 3 -14 6 -6 3 7 2 16 -1 19 -3 4 -6 -2 -5 -13z"/>
<path d="M670 1475 c7 -9 15 -13 17 -11 7 7 -7 26 -19 26 -6 0 -6 -6 2 -15z"/>
<path d="M424 1088 c22 -21 44 -38 49 -38 5 0 -6 12 -25 27 -56 45 -66 50 -24
11z"/>
<path d="M191 1270 c14 -31 19 -36 19 -24 0 6 -7 19 -16 30 -14 18 -14 18 -3
-6z"/>
<path d="M1179 1330 c-13 -10 -20 -19 -16 -20 4 0 17 9 29 20 28 26 17 26 -13
0z"/>
<path d="M1520 1326 c0 -2 8 -10 18 -17 15 -13 16 -12 3 4 -13 16 -21 21 -21
13z"/>
<path d="M1115 1126 c-41 -44 -47 -60 -10 -24 22 21 37 39 35 41 -3 3 -14 -5
-25 -17z"/>
<path d="M1062 1035 c0 -16 2 -22 5 -12 2 9 2 23 0 30 -3 6 -5 -1 -5 -18z"/>
<path d="M1090 655 c-11 -13 -10 -14 4 -9 9 3 16 10 16 15 0 13 -6 11 -20 -6z"/>
<path d="M1395 570 c9 -16 18 -30 21 -30 2 0 -2 14 -11 30 -9 17 -18 30 -21
30 -2 0 2 -13 11 -30z"/>
<path d="M1162 560 c0 -14 2 -19 5 -12 2 6 2 18 0 25 -3 6 -5 1 -5 -13z"/>
<path d="M266 1125 c-9 -26 -7 -32 5 -12 6 10 9 21 6 23 -2 3 -7 -2 -11 -11z"/>
<path d="M256 1073 c-6 -14 -5 -15 5 -6 7 7 10 15 7 18 -3 3 -9 -2 -12 -12z"/>
<path d="M405 991 c6 -5 24 -13 40 -17 39 -9 30 0 -15 15 -19 6 -30 7 -25 2z"/>
<path d="M620 1081 c0 -6 4 -13 10 -16 6 -3 7 1 4 9 -7 18 -14 21 -14 7z"/>
<path d="M1670 966 c3 -3 18 -7 34 -10 16 -3 25 -2 22 1 -4 4 -19 9 -34 11
-15 2 -24 1 -22 -2z"/>
<path d="M1640 846 c0 -3 9 -10 20 -16 11 -6 20 -8 20 -6 0 3 -9 10 -20 16
-11 6 -20 8 -20 6z"/>
<path d="M1480 676 c0 -2 8 -10 18 -17 15 -13 16 -12 3 4 -13 16 -21 21 -21
13z"/>
<path d="M1600 600 c-9 -6 -10 -10 -3 -10 6 0 15 5 18 10 8 12 4 12 -15 0z"/>
<path d="M1497 993 c-4 -3 -7 -11 -7 -17 0 -6 5 -5 12 2 6 6 9 14 7 17 -3 3
-9 2 -12 -2z"/>
<path d="M702 930 c0 -14 2 -19 5 -12 2 6 2 18 0 25 -3 6 -5 1 -5 -13z"/>
<path d="M878 913 c7 -3 16 -2 19 1 4 3 -2 6 -13 5 -11 0 -14 -3 -6 -6z"/>
<path d="M875 840 c-3 -5 -1 -10 4 -10 6 0 11 5 11 10 0 6 -2 10 -4 10 -3 0
-8 -4 -11 -10z"/>
<path d="M546 908 l-18 -33 21 25 c18 22 26 40 18 40 -1 0 -11 -15 -21 -32z"/>
<path d="M479 893 c-13 -16 -12 -17 4 -4 9 7 17 15 17 17 0 8 -8 3 -21 -13z"/>
<path d="M660 880 c12 -16 24 -30 26 -30 3 0 -4 14 -16 30 -12 17 -24 30 -26
30 -3 0 4 -13 16 -30z"/>
<path d="M420 767 c0 -2 14 -16 32 -33 31 -29 31 -29 12 -2 -16 23 -44 45 -44
35z"/>
<path d="M340 699 c0 -5 5 -7 10 -4 6 3 10 8 10 11 0 2 -4 4 -10 4 -5 0 -10
-5 -10 -11z"/>
<path d="M1608 773 c7 -3 16 -2 19 1 4 3 -2 6 -13 5 -11 0 -14 -3 -6 -6z"/>
<path d="M1278 743 c6 -2 18 -2 25 0 6 3 1 5 -13 5 -14 0 -19 -2 -12 -5z"/>
<path d="M1396 693 c-6 -14 -5 -15 5 -6 7 7 10 15 7 18 -3 3 -9 -2 -12 -12z"/>
<path d="M1354 664 c-18 -14 -18 -15 4 -4 12 6 22 13 22 15 0 8 -5 6 -26 -11z"/>
<path d="M1705 649 c-4 -6 -5 -12 -2 -15 2 -3 7 2 10 11 7 17 1 20 -8 4z"/>
<path d="M780 506 c0 -14 -7 -42 -14 -61 -18 -42 -13 -46 8 -7 23 42 19 2 -4
-43 l-21 -40 24 29 25 28 0 -28 c0 -16 -7 -42 -15 -58 -10 -18 -10 -26 -3 -21
7 4 16 1 21 -6 6 -10 9 -8 9 9 0 12 5 22 11 22 5 0 7 5 3 11 -4 7 -8 26 -10
43 -3 28 -2 29 10 14 25 -33 25 -18 1 18 -29 43 -36 86 -9 60 29 -30 28 -16
-2 16 -16 18 -30 35 -31 37 -2 2 -3 -8 -3 -23z"/>
<path d="M1706 507 c3 -10 9 -15 12 -12 3 3 0 11 -7 18 -10 9 -11 8 -5 -6z"/>
</g>
</svg>
